<mxfile host="Electron" agent="Mozilla/5.0 (Windows NT 10.0; Win64; x64) AppleWebKit/537.36 (KHTML, like Gecko) draw.io/27.0.5 Chrome/134.0.6998.205 Electron/35.3.0 Safari/537.36" version="27.0.5">
  <diagram name="PÃ¡gina-1" id="8-zg-FutYgX1FDoIY-Lt">
    <mxGraphModel dx="1426" dy="841" grid="0" gridSize="10" guides="1" tooltips="1" connect="1" arrows="1" fold="1" page="1" pageScale="1" pageWidth="827" pageHeight="1169" background="#ffffff" math="0" shadow="0">
      <root>
        <mxCell id="0" />
        <mxCell id="1" parent="0" />
        <mxCell id="9RZHDo-6hjRNsBoWMsQF-5" value="" style="rounded=1;whiteSpace=wrap;html=1;fillColor=none;strokeColor=#000000;" parent="1" vertex="1">
          <mxGeometry x="171" y="103" width="500" height="787" as="geometry" />
        </mxCell>
        <mxCell id="9RZHDo-6hjRNsBoWMsQF-24" style="edgeStyle=orthogonalEdgeStyle;rounded=0;orthogonalLoop=1;jettySize=auto;html=1;entryX=0;entryY=0.5;entryDx=0;entryDy=0;strokeColor=#000000;" parent="1" source="9RZHDo-6hjRNsBoWMsQF-2" target="9RZHDo-6hjRNsBoWMsQF-10" edge="1">
          <mxGeometry relative="1" as="geometry">
            <Array as="points">
              <mxPoint x="36" y="185" />
            </Array>
          </mxGeometry>
        </mxCell>
        <mxCell id="9RZHDo-6hjRNsBoWMsQF-25" style="edgeStyle=orthogonalEdgeStyle;rounded=0;orthogonalLoop=1;jettySize=auto;html=1;entryX=0;entryY=0.5;entryDx=0;entryDy=0;strokeColor=#000000;" parent="1" source="9RZHDo-6hjRNsBoWMsQF-2" target="9RZHDo-6hjRNsBoWMsQF-11" edge="1">
          <mxGeometry relative="1" as="geometry">
            <Array as="points">
              <mxPoint x="43" y="221" />
              <mxPoint x="300" y="221" />
              <mxPoint x="300" y="187" />
            </Array>
          </mxGeometry>
        </mxCell>
        <mxCell id="9RZHDo-6hjRNsBoWMsQF-26" style="edgeStyle=orthogonalEdgeStyle;rounded=0;orthogonalLoop=1;jettySize=auto;html=1;entryX=0;entryY=0.5;entryDx=0;entryDy=0;strokeColor=#000000;" parent="1" source="9RZHDo-6hjRNsBoWMsQF-2" target="9RZHDo-6hjRNsBoWMsQF-12" edge="1">
          <mxGeometry relative="1" as="geometry">
            <Array as="points">
              <mxPoint x="49" y="229" />
              <mxPoint x="441" y="229" />
              <mxPoint x="441" y="187" />
            </Array>
          </mxGeometry>
        </mxCell>
        <mxCell id="9RZHDo-6hjRNsBoWMsQF-27" style="edgeStyle=orthogonalEdgeStyle;rounded=0;orthogonalLoop=1;jettySize=auto;html=1;entryX=0;entryY=0.5;entryDx=0;entryDy=0;strokeColor=#000000;" parent="1" source="9RZHDo-6hjRNsBoWMsQF-2" target="9RZHDo-6hjRNsBoWMsQF-13" edge="1">
          <mxGeometry relative="1" as="geometry">
            <Array as="points">
              <mxPoint x="53" y="522" />
              <mxPoint x="53" y="234" />
              <mxPoint x="530" y="234" />
              <mxPoint x="530" y="280" />
            </Array>
          </mxGeometry>
        </mxCell>
        <mxCell id="9RZHDo-6hjRNsBoWMsQF-29" style="edgeStyle=orthogonalEdgeStyle;rounded=0;orthogonalLoop=1;jettySize=auto;html=1;entryX=0;entryY=0.5;entryDx=0;entryDy=0;strokeColor=#000000;" parent="1" source="9RZHDo-6hjRNsBoWMsQF-2" target="9RZHDo-6hjRNsBoWMsQF-18" edge="1">
          <mxGeometry relative="1" as="geometry">
            <Array as="points">
              <mxPoint x="96" y="522" />
              <mxPoint x="96" y="396" />
              <mxPoint x="336" y="396" />
              <mxPoint x="336" y="471" />
            </Array>
          </mxGeometry>
        </mxCell>
        <mxCell id="9RZHDo-6hjRNsBoWMsQF-40" style="edgeStyle=orthogonalEdgeStyle;rounded=0;orthogonalLoop=1;jettySize=auto;html=1;entryX=0;entryY=0.5;entryDx=0;entryDy=0;strokeColor=#000000;" parent="1" source="9RZHDo-6hjRNsBoWMsQF-2" target="9RZHDo-6hjRNsBoWMsQF-38" edge="1">
          <mxGeometry relative="1" as="geometry">
            <Array as="points">
              <mxPoint x="89" y="522" />
              <mxPoint x="89" y="356" />
            </Array>
          </mxGeometry>
        </mxCell>
        <mxCell id="9RZHDo-6hjRNsBoWMsQF-42" style="edgeStyle=orthogonalEdgeStyle;rounded=0;orthogonalLoop=1;jettySize=auto;html=1;entryX=0;entryY=0.5;entryDx=0;entryDy=0;strokeColor=#000000;" parent="1" source="9RZHDo-6hjRNsBoWMsQF-2" target="9RZHDo-6hjRNsBoWMsQF-36" edge="1">
          <mxGeometry relative="1" as="geometry">
            <Array as="points">
              <mxPoint x="57" y="522" />
              <mxPoint x="57" y="268" />
            </Array>
          </mxGeometry>
        </mxCell>
        <mxCell id="9RZHDo-6hjRNsBoWMsQF-44" style="edgeStyle=orthogonalEdgeStyle;rounded=0;orthogonalLoop=1;jettySize=auto;html=1;entryX=0;entryY=0.5;entryDx=0;entryDy=0;strokeColor=#000000;" parent="1" source="9RZHDo-6hjRNsBoWMsQF-2" target="9RZHDo-6hjRNsBoWMsQF-37" edge="1">
          <mxGeometry relative="1" as="geometry">
            <Array as="points">
              <mxPoint x="119" y="522" />
              <mxPoint x="119" y="471" />
              <mxPoint x="315" y="471" />
              <mxPoint x="315" y="555" />
            </Array>
          </mxGeometry>
        </mxCell>
        <mxCell id="SIfgqBpmmm861IJmY0HD-1" style="edgeStyle=orthogonalEdgeStyle;rounded=0;orthogonalLoop=1;jettySize=auto;html=1;entryX=0;entryY=0.5;entryDx=0;entryDy=0;strokeColor=#000000;" parent="1" source="9RZHDo-6hjRNsBoWMsQF-2" target="9RZHDo-6hjRNsBoWMsQF-46" edge="1">
          <mxGeometry relative="1" as="geometry" />
        </mxCell>
        <mxCell id="SIfgqBpmmm861IJmY0HD-3" style="edgeStyle=orthogonalEdgeStyle;rounded=0;orthogonalLoop=1;jettySize=auto;html=1;entryX=0;entryY=0.5;entryDx=0;entryDy=0;strokeColor=#000000;" parent="1" source="9RZHDo-6hjRNsBoWMsQF-2" target="9RZHDo-6hjRNsBoWMsQF-48" edge="1">
          <mxGeometry relative="1" as="geometry">
            <Array as="points">
              <mxPoint x="92" y="522" />
              <mxPoint x="92" y="667" />
            </Array>
          </mxGeometry>
        </mxCell>
        <mxCell id="SIfgqBpmmm861IJmY0HD-5" style="edgeStyle=orthogonalEdgeStyle;rounded=0;orthogonalLoop=1;jettySize=auto;html=1;entryX=0;entryY=0.5;entryDx=0;entryDy=0;strokeColor=#000000;" parent="1" source="9RZHDo-6hjRNsBoWMsQF-2" target="9RZHDo-6hjRNsBoWMsQF-45" edge="1">
          <mxGeometry relative="1" as="geometry">
            <Array as="points">
              <mxPoint x="72" y="520" />
              <mxPoint x="72" y="312" />
              <mxPoint x="382" y="312" />
              <mxPoint x="382" y="373" />
            </Array>
          </mxGeometry>
        </mxCell>
        <mxCell id="SIfgqBpmmm861IJmY0HD-8" style="edgeStyle=orthogonalEdgeStyle;rounded=0;orthogonalLoop=1;jettySize=auto;html=1;entryX=0;entryY=0.5;entryDx=0;entryDy=0;strokeColor=#000000;" parent="1" source="9RZHDo-6hjRNsBoWMsQF-2" target="9RZHDo-6hjRNsBoWMsQF-50" edge="1">
          <mxGeometry relative="1" as="geometry">
            <Array as="points">
              <mxPoint x="77" y="524" />
              <mxPoint x="77" y="541" />
              <mxPoint x="79" y="541" />
              <mxPoint x="79" y="705" />
              <mxPoint x="357" y="705" />
            </Array>
          </mxGeometry>
        </mxCell>
        <mxCell id="RQ47aFQNO-5y4JHU0TSP-2" style="edgeStyle=orthogonalEdgeStyle;rounded=0;orthogonalLoop=1;jettySize=auto;html=1;exitX=0.5;exitY=0.5;exitDx=0;exitDy=0;exitPerimeter=0;entryX=0;entryY=0.5;entryDx=0;entryDy=0;strokeColor=#000000;" edge="1" parent="1" source="9RZHDo-6hjRNsBoWMsQF-2" target="9RZHDo-6hjRNsBoWMsQF-19">
          <mxGeometry relative="1" as="geometry">
            <Array as="points">
              <mxPoint x="64" y="522" />
              <mxPoint x="64" y="302" />
              <mxPoint x="402" y="302" />
              <mxPoint x="402" y="332" />
            </Array>
          </mxGeometry>
        </mxCell>
        <mxCell id="RQ47aFQNO-5y4JHU0TSP-3" style="edgeStyle=orthogonalEdgeStyle;rounded=0;orthogonalLoop=1;jettySize=auto;html=1;entryX=0;entryY=0.5;entryDx=0;entryDy=0;strokeColor=#000000;" edge="1" parent="1" source="9RZHDo-6hjRNsBoWMsQF-2" target="9RZHDo-6hjRNsBoWMsQF-15">
          <mxGeometry relative="1" as="geometry">
            <Array as="points">
              <mxPoint x="81" y="522" />
              <mxPoint x="81" y="318" />
              <mxPoint x="350" y="318" />
              <mxPoint x="350" y="420" />
              <mxPoint x="498" y="420" />
            </Array>
          </mxGeometry>
        </mxCell>
        <mxCell id="RQ47aFQNO-5y4JHU0TSP-5" style="edgeStyle=orthogonalEdgeStyle;rounded=0;orthogonalLoop=1;jettySize=auto;html=1;entryX=0;entryY=0.5;entryDx=0;entryDy=0;strokeColor=#000000;" edge="1" parent="1" source="9RZHDo-6hjRNsBoWMsQF-2" target="9RZHDo-6hjRNsBoWMsQF-22">
          <mxGeometry relative="1" as="geometry">
            <Array as="points">
              <mxPoint x="108" y="522" />
              <mxPoint x="108" y="432" />
              <mxPoint x="195" y="432" />
            </Array>
          </mxGeometry>
        </mxCell>
        <mxCell id="RQ47aFQNO-5y4JHU0TSP-6" style="edgeStyle=orthogonalEdgeStyle;rounded=0;orthogonalLoop=1;jettySize=auto;html=1;entryX=0;entryY=0.5;entryDx=0;entryDy=0;strokeColor=#000000;" edge="1" parent="1" source="9RZHDo-6hjRNsBoWMsQF-2" target="9RZHDo-6hjRNsBoWMsQF-20">
          <mxGeometry relative="1" as="geometry">
            <Array as="points">
              <mxPoint x="102" y="522" />
              <mxPoint x="102" y="631" />
            </Array>
          </mxGeometry>
        </mxCell>
        <mxCell id="RQ47aFQNO-5y4JHU0TSP-7" style="edgeStyle=orthogonalEdgeStyle;rounded=0;orthogonalLoop=1;jettySize=auto;html=1;entryX=0;entryY=0.5;entryDx=0;entryDy=0;strokeColor=#000000;" edge="1" parent="1" source="9RZHDo-6hjRNsBoWMsQF-2" target="9RZHDo-6hjRNsBoWMsQF-47">
          <mxGeometry relative="1" as="geometry">
            <Array as="points">
              <mxPoint x="129" y="522" />
              <mxPoint x="129" y="593" />
            </Array>
          </mxGeometry>
        </mxCell>
        <mxCell id="RQ47aFQNO-5y4JHU0TSP-8" style="edgeStyle=orthogonalEdgeStyle;rounded=0;orthogonalLoop=1;jettySize=auto;html=1;entryX=0;entryY=0.5;entryDx=0;entryDy=0;strokeColor=#000000;" edge="1" parent="1" source="9RZHDo-6hjRNsBoWMsQF-2" target="9RZHDo-6hjRNsBoWMsQF-49">
          <mxGeometry relative="1" as="geometry">
            <Array as="points">
              <mxPoint x="70" y="533" />
              <mxPoint x="70" y="748" />
              <mxPoint x="235" y="748" />
            </Array>
          </mxGeometry>
        </mxCell>
        <mxCell id="RQ47aFQNO-5y4JHU0TSP-9" style="edgeStyle=orthogonalEdgeStyle;rounded=0;orthogonalLoop=1;jettySize=auto;html=1;entryX=0;entryY=0.5;entryDx=0;entryDy=0;strokeColor=#000000;" edge="1" parent="1" source="9RZHDo-6hjRNsBoWMsQF-2" target="9RZHDo-6hjRNsBoWMsQF-51">
          <mxGeometry relative="1" as="geometry">
            <Array as="points">
              <mxPoint x="64" y="522" />
              <mxPoint x="64" y="844" />
            </Array>
          </mxGeometry>
        </mxCell>
        <mxCell id="RQ47aFQNO-5y4JHU0TSP-10" style="edgeStyle=orthogonalEdgeStyle;rounded=0;orthogonalLoop=1;jettySize=auto;html=1;entryX=0;entryY=0.5;entryDx=0;entryDy=0;strokeColor=#000000;" edge="1" parent="1" source="9RZHDo-6hjRNsBoWMsQF-2" target="9RZHDo-6hjRNsBoWMsQF-21">
          <mxGeometry relative="1" as="geometry">
            <Array as="points">
              <mxPoint x="67" y="522" />
              <mxPoint x="67" y="805" />
            </Array>
          </mxGeometry>
        </mxCell>
        <mxCell id="9RZHDo-6hjRNsBoWMsQF-2" value="&lt;font style=&quot;color: rgb(0, 0, 0);&quot;&gt;UsuÃ¡rio&lt;/font&gt;" style="shape=umlActor;verticalLabelPosition=bottom;verticalAlign=top;html=1;fillColor=#FFFFFF;strokeColor=#000000;" parent="1" vertex="1">
          <mxGeometry x="21" y="492" width="30" height="60" as="geometry" />
        </mxCell>
        <mxCell id="9RZHDo-6hjRNsBoWMsQF-8" value="&lt;font style=&quot;color: rgb(0, 0, 0); font-size: 19px;&quot;&gt;Sistema &quot;Se Controle&quot;&lt;/font&gt;" style="text;html=1;align=center;verticalAlign=middle;resizable=0;points=[];autosize=1;strokeColor=none;fillColor=none;" parent="1" vertex="1">
          <mxGeometry x="311" y="103" width="206" height="35" as="geometry" />
        </mxCell>
        <mxCell id="9RZHDo-6hjRNsBoWMsQF-10" value="&lt;font style=&quot;color: rgb(0, 0, 0);&quot;&gt;Fazer cadastro&lt;/font&gt;" style="ellipse;whiteSpace=wrap;html=1;fillColor=none;strokeColor=#000000;" parent="1" vertex="1">
          <mxGeometry x="192" y="155" width="100" height="60" as="geometry" />
        </mxCell>
        <mxCell id="9RZHDo-6hjRNsBoWMsQF-11" value="&lt;font style=&quot;color: rgb(0, 0, 0);&quot;&gt;Fazer login&lt;/font&gt;" style="ellipse;whiteSpace=wrap;html=1;fillColor=none;strokeColor=#000000;" parent="1" vertex="1">
          <mxGeometry x="326" y="157" width="100" height="60" as="geometry" />
        </mxCell>
        <mxCell id="9RZHDo-6hjRNsBoWMsQF-12" value="&lt;font style=&quot;color: rgb(0, 0, 0);&quot;&gt;CRUD Ambiente&lt;/font&gt;" style="ellipse;whiteSpace=wrap;html=1;fillColor=none;strokeColor=#000000;" parent="1" vertex="1">
          <mxGeometry x="460" y="157" width="100" height="60" as="geometry" />
        </mxCell>
        <mxCell id="9RZHDo-6hjRNsBoWMsQF-13" value="&lt;font style=&quot;color: rgb(0, 0, 0);&quot;&gt;CRUD Tipo de despesas&lt;/font&gt;" style="ellipse;whiteSpace=wrap;html=1;fillColor=none;strokeColor=#000000;" parent="1" vertex="1">
          <mxGeometry x="554" y="250" width="100" height="60" as="geometry" />
        </mxCell>
        <mxCell id="9RZHDo-6hjRNsBoWMsQF-15" value="&lt;font style=&quot;color: rgb(0, 0, 0);&quot;&gt;CRUD Despesas&lt;/font&gt;" style="ellipse;whiteSpace=wrap;html=1;fillColor=none;strokeColor=#000000;" parent="1" vertex="1">
          <mxGeometry x="540" y="424" width="100" height="60" as="geometry" />
        </mxCell>
        <mxCell id="9RZHDo-6hjRNsBoWMsQF-18" value="&lt;font color=&quot;#000000&quot;&gt;Gerar relatÃ³rios&lt;/font&gt;" style="ellipse;whiteSpace=wrap;html=1;fillColor=none;strokeColor=#000000;" parent="1" vertex="1">
          <mxGeometry x="364" y="441" width="100" height="60" as="geometry" />
        </mxCell>
        <mxCell id="9RZHDo-6hjRNsBoWMsQF-19" value="&lt;font color=&quot;#000000&quot;&gt;CRUD metas&lt;/font&gt;" style="ellipse;whiteSpace=wrap;html=1;fillColor=none;strokeColor=#000000;" parent="1" vertex="1">
          <mxGeometry x="428" y="302" width="100" height="60" as="geometry" />
        </mxCell>
        <mxCell id="9RZHDo-6hjRNsBoWMsQF-20" value="&lt;font style=&quot;color: rgb(0, 0, 0);&quot;&gt;Personalizar tela principal&lt;/font&gt;" style="ellipse;whiteSpace=wrap;html=1;fillColor=none;strokeColor=#000000;" parent="1" vertex="1">
          <mxGeometry x="466" y="602" width="100" height="60" as="geometry" />
        </mxCell>
        <mxCell id="9RZHDo-6hjRNsBoWMsQF-21" value="&lt;font style=&quot;color: rgb(0, 0, 0);&quot;&gt;Simular planejamento&lt;/font&gt;" style="ellipse;whiteSpace=wrap;html=1;fillColor=none;strokeColor=#000000;" parent="1" vertex="1">
          <mxGeometry x="533" y="774" width="100" height="60" as="geometry" />
        </mxCell>
        <mxCell id="9RZHDo-6hjRNsBoWMsQF-22" value="&lt;font color=&quot;#000000&quot;&gt;Escolher qual metas quer incluir nas despesas&lt;/font&gt;" style="ellipse;whiteSpace=wrap;html=1;fillColor=none;strokeColor=#000000;" parent="1" vertex="1">
          <mxGeometry x="201" y="401" width="100" height="60" as="geometry" />
        </mxCell>
        <mxCell id="9RZHDo-6hjRNsBoWMsQF-35" value="&lt;font color=&quot;#000000&quot;&gt;Exportar dados&lt;/font&gt;" style="ellipse;whiteSpace=wrap;html=1;fillColor=none;strokeColor=#000000;" parent="1" vertex="1">
          <mxGeometry x="498" y="508" width="100" height="60" as="geometry" />
        </mxCell>
        <mxCell id="9RZHDo-6hjRNsBoWMsQF-36" value="&lt;font color=&quot;#000000&quot;&gt;CRUD usuÃ¡rio&lt;/font&gt;" style="ellipse;whiteSpace=wrap;html=1;fillColor=none;strokeColor=#000000;" parent="1" vertex="1">
          <mxGeometry x="378" y="237" width="100" height="60" as="geometry" />
        </mxCell>
        <mxCell id="9RZHDo-6hjRNsBoWMsQF-37" value="&lt;font color=&quot;#000000&quot;&gt;NotificaÃ§Ãµes ou alertas&lt;/font&gt;" style="ellipse;whiteSpace=wrap;html=1;fillColor=none;strokeColor=#000000;" parent="1" vertex="1">
          <mxGeometry x="364" y="525" width="100" height="60" as="geometry" />
        </mxCell>
        <mxCell id="9RZHDo-6hjRNsBoWMsQF-38" value="&lt;font color=&quot;#000000&quot;&gt;RecuperaÃ§Ã£o de senha&lt;/font&gt;" style="ellipse;whiteSpace=wrap;html=1;fillColor=none;strokeColor=#000000;" parent="1" vertex="1">
          <mxGeometry x="188" y="326" width="100" height="60" as="geometry" />
        </mxCell>
        <mxCell id="9RZHDo-6hjRNsBoWMsQF-45" value="&lt;font color=&quot;#000000&quot;&gt;Fazer logout&lt;/font&gt;" style="ellipse;whiteSpace=wrap;html=1;fillColor=none;strokeColor=#000000;" parent="1" vertex="1">
          <mxGeometry x="528" y="343" width="100" height="60" as="geometry" />
        </mxCell>
        <mxCell id="9RZHDo-6hjRNsBoWMsQF-46" value="&lt;font color=&quot;#000000&quot;&gt;Compartilhar ambiente&lt;/font&gt;" style="ellipse;whiteSpace=wrap;html=1;fillColor=none;strokeColor=#000000;" parent="1" vertex="1">
          <mxGeometry x="198" y="492" width="100" height="60" as="geometry" />
        </mxCell>
        <mxCell id="9RZHDo-6hjRNsBoWMsQF-47" value="&lt;font color=&quot;#000000&quot;&gt;Participar ambiente&lt;/font&gt;" style="ellipse;whiteSpace=wrap;html=1;fillColor=none;strokeColor=#000000;" parent="1" vertex="1">
          <mxGeometry x="198" y="563" width="100" height="60" as="geometry" />
        </mxCell>
        <mxCell id="9RZHDo-6hjRNsBoWMsQF-48" value="&lt;font color=&quot;#000000&quot;&gt;AlteraÃ§Ãµes permissÃµes no ambiente&lt;/font&gt;" style="ellipse;whiteSpace=wrap;html=1;fillColor=none;strokeColor=#000000;" parent="1" vertex="1">
          <mxGeometry x="304" y="638" width="100" height="60" as="geometry" />
        </mxCell>
        <mxCell id="9RZHDo-6hjRNsBoWMsQF-49" value="&lt;font color=&quot;#000000&quot;&gt;Compartilhar metas&lt;/font&gt;" style="ellipse;whiteSpace=wrap;html=1;fillColor=none;strokeColor=#000000;" parent="1" vertex="1">
          <mxGeometry x="380" y="718" width="100" height="60" as="geometry" />
        </mxCell>
        <mxCell id="9RZHDo-6hjRNsBoWMsQF-50" value="&lt;font color=&quot;#000000&quot;&gt;Alterar permissÃµes de matas&lt;/font&gt;" style="ellipse;whiteSpace=wrap;html=1;fillColor=none;strokeColor=#000000;" parent="1" vertex="1">
          <mxGeometry x="531" y="675" width="100" height="60" as="geometry" />
        </mxCell>
        <mxCell id="9RZHDo-6hjRNsBoWMsQF-51" value="&lt;font color=&quot;#000000&quot;&gt;Participar de metas&lt;/font&gt;" style="ellipse;whiteSpace=wrap;html=1;fillColor=none;strokeColor=#000000;" parent="1" vertex="1">
          <mxGeometry x="353" y="815" width="100" height="60" as="geometry" />
        </mxCell>
        <mxCell id="SIfgqBpmmm861IJmY0HD-17" value="&lt;font style=&quot;color: rgb(0, 0, 0);&quot;&gt;&amp;lt;&amp;lt;extend&lt;span style=&quot;background-color: transparent;&quot;&gt;&amp;gt;&amp;gt;&lt;/span&gt;&lt;/font&gt;" style="endArrow=open;startArrow=none;endFill=0;startFill=0;endSize=8;html=1;verticalAlign=bottom;dashed=1;labelBackgroundColor=none;rounded=0;strokeColor=#000000;fontColor=#000000;exitX=0;exitY=0.5;exitDx=0;exitDy=0;entryX=1;entryY=0.5;entryDx=0;entryDy=0;" parent="1" source="9RZHDo-6hjRNsBoWMsQF-35" target="9RZHDo-6hjRNsBoWMsQF-18" edge="1">
          <mxGeometry x="-0.4131" y="-1" width="160" relative="1" as="geometry">
            <mxPoint x="412" y="833" as="sourcePoint" />
            <mxPoint x="341" y="833" as="targetPoint" />
            <mxPoint as="offset" />
          </mxGeometry>
        </mxCell>
      </root>
    </mxGraphModel>
  </diagram>
</mxfile>
